# xmcd CD database file generated by OrangeCD 5.2
#
# Track frame offsets:
#	170
#	15112
#	31067
#	49375
#	61400
#	72085
#	85072
#	96907
#	118182
#	128057
#	143700
#	154372
#	161050
#
# Disc length: 2267 seconds
#
# Revision: 1
# Processed by: cddbd v1.5.1PL0 Copyright (c) Steve Scherf et al.
# Submitted via: OrangeCD 5.2
#
DISCID=a808d90d
DTITLE=Joe Carr and The Texas Lone Star Band - Let's Go Dancing Down In Texas
DYEAR=1992
DGENRE=Country
TTITLE0=Dallas Two-Step
TTITLE1=Seminole Swing
TTITLE2=Texarkana Waltz
TTITLE3=Amarillo Shuffle
TTITLE4=Lubbock Lights
TTITLE5=Houston Hop
TTITLE6=Fort Worth Jump
TTITLE7=River Walkin' By The San Antone
TTITLE8=Dear Ol' Dalhart
TTITLE9=San Angelo Swing
TTITLE10=Beaumont Bayou
TTITLE11=Cotton Eyed Joe
TTITLE12=Little Schottische
EXTD=
EXTT0=
EXTT1=
EXTT2=
EXTT3=
EXTT4=
EXTT5=
EXTT6=
EXTT7=
EXTT8=
EXTT9=
EXTT10=
EXTT11=
EXTT12=
PLAYORDER=
